#N canvas 616 179 866 677 10;
#X msg 190 352 connect 37.9.170.233 8000;
#X msg 191 396 mountpoint stream.mp3;
#X obj 114 249 t b b b b b;
#X obj 114 497 mp3cast~;
#X obj 114 53 loadbang;
#X obj 114 570 print;
#X msg 192 439 icecast2;
#X msg 281 239 \; pd dsp 1 \;;
#X msg 189 305 passwd vsetky.bezky.vlese;
#X obj 114 190 bng 40 250 50 0 empty empty empty 17 7 0 10 -261682
-1 -1;
#X text 111 601 chlapcom z <3 Bolka 2019;
#X msg 191 531 disconnect;
#X obj 64 385 adc~;
#X connect 0 0 3 0;
#X connect 1 0 3 0;
#X connect 2 0 7 0;
#X connect 2 1 6 0;
#X connect 2 2 1 0;
#X connect 2 3 0 0;
#X connect 2 4 8 0;
#X connect 3 0 5 0;
#X connect 4 0 9 0;
#X connect 6 0 3 0;
#X connect 8 0 3 0;
#X connect 9 0 2 0;
#X connect 11 0 3 0;
#X connect 12 0 3 0;
#X connect 12 1 3 1;
